<?xml version="1.0" encoding="UTF-8"?>
<svg xmlns="http://www.w3.org/2000/svg" xmlns:xlink="http://www.w3.org/1999/xlink" width="43px" height="43px" viewBox="0 0 43 43" version="1.1">
<defs>
<filter id="alpha" filterUnits="objectBoundingBox" x="0%" y="0%" width="100%" height="100%">
  <feColorMatrix type="matrix" in="SourceGraphic" values="0 0 0 0 1 0 0 0 0 1 0 0 0 0 1 0 0 0 1 0"/>
</filter>
<mask id="mask0">
  <g filter="url(#alpha)">
<rect x="0" y="0" width="43" height="43" style="fill:rgb(0%,0%,0%);fill-opacity:0.996078;stroke:none;"/>
  </g>
</mask>
<clipPath id="clip1">
  <rect x="0" y="0" width="43" height="43"/>
</clipPath>
<g id="surface5" clip-path="url(#clip1)">
<path style=" stroke:none;fill-rule:evenodd;fill:rgb(20%,60%,0%);fill-opacity:1;" d="M 25.316406 -0.0195312 C 25.792969 -0.0195312 26.273438 -0.0195312 26.75 -0.0195312 C 29.269531 0.355469 31.082031 1.695312 32.179688 3.996094 C 33.148438 6.546875 32.789062 8.886719 31.101562 11.019531 C 27.890625 14.238281 24.671875 17.453125 21.445312 20.65625 C 18.269531 17.5 15.097656 14.332031 11.933594 11.160156 C 10.394531 9.304688 9.925781 7.203125 10.535156 4.855469 C 11.210938 2.761719 12.566406 1.296875 14.601562 0.464844 C 17.132812 -0.363281 19.414062 0.0703125 21.445312 1.773438 C 22.546875 0.769531 23.835938 0.171875 25.316406 -0.0195312 Z M 25.316406 -0.0195312 "/>
</g>
<mask id="mask1">
  <g filter="url(#alpha)">
<rect x="0" y="0" width="43" height="43" style="fill:rgb(0%,0%,0%);fill-opacity:0.996078;stroke:none;"/>
  </g>
</mask>
<clipPath id="clip2">
  <rect x="0" y="0" width="43" height="43"/>
</clipPath>
<g id="surface8" clip-path="url(#clip2)">
<path style=" stroke:none;fill-rule:evenodd;fill:rgb(20%,60%,0%);fill-opacity:1;" d="M -0.0195312 26.75 C -0.0195312 26.273438 -0.0195312 25.792969 -0.0195312 25.316406 C 0.171875 23.835938 0.769531 22.546875 1.773438 21.445312 C 0.0703125 19.414062 -0.363281 17.132812 0.464844 14.601562 C 1.4375 12.269531 3.164062 10.855469 5.644531 10.355469 C 7.726562 10.058594 9.5625 10.582031 11.160156 11.933594 C 14.332031 15.097656 17.5 18.269531 20.65625 21.445312 C 17.453125 24.671875 14.238281 27.890625 11.019531 31.101562 C 8.886719 32.789062 6.546875 33.148438 3.996094 32.179688 C 1.695312 31.082031 0.355469 29.269531 -0.0195312 26.75 Z M -0.0195312 26.75 "/>
</g>
<mask id="mask2">
  <g filter="url(#alpha)">
<rect x="0" y="0" width="43" height="43" style="fill:rgb(0%,0%,0%);fill-opacity:0.996078;stroke:none;"/>
  </g>
</mask>
<clipPath id="clip3">
  <rect x="0" y="0" width="43" height="43"/>
</clipPath>
<g id="surface11" clip-path="url(#clip3)">
<path style=" stroke:none;fill-rule:evenodd;fill:rgb(20%,60%,0%);fill-opacity:1;" d="M 42.980469 25.171875 C 42.980469 25.746094 42.980469 26.320312 42.980469 26.894531 C 42.574219 29.398438 41.210938 31.171875 38.898438 32.214844 C 36.28125 33.164062 33.917969 32.746094 31.800781 30.960938 C 28.628906 27.792969 25.464844 24.621094 22.304688 21.445312 C 25.382812 18.351562 28.464844 15.265625 31.550781 12.183594 C 33.480469 10.417969 35.714844 9.878906 38.253906 10.570312 C 40.910156 11.519531 42.457031 13.390625 42.890625 16.179688 C 43.085938 18.179688 42.53125 19.933594 41.226562 21.445312 C 42.179688 22.515625 42.765625 23.757812 42.980469 25.171875 Z M 42.980469 25.171875 "/>
</g>
<mask id="mask3">
  <g filter="url(#alpha)">
<rect x="0" y="0" width="43" height="43" style="fill:rgb(0%,0%,0%);fill-opacity:0.996078;stroke:none;"/>
  </g>
</mask>
<clipPath id="clip4">
  <rect x="0" y="0" width="43" height="43"/>
</clipPath>
<g id="surface14" clip-path="url(#clip4)">
<path style=" stroke:none;fill-rule:evenodd;fill:rgb(20%,60%,0%);fill-opacity:1;" d="M 26.894531 42.980469 C 26.320312 42.980469 25.746094 42.980469 25.171875 42.980469 C 23.757812 42.765625 22.515625 42.179688 21.445312 41.226562 C 19.421875 42.90625 17.152344 43.339844 14.636719 42.535156 C 12.359375 41.605469 10.941406 39.9375 10.390625 37.535156 C 10.007812 35.238281 10.605469 33.242188 12.183594 31.550781 C 15.265625 28.464844 18.351562 25.382812 21.445312 22.304688 C 24.621094 25.464844 27.792969 28.628906 30.960938 31.800781 C 32.746094 33.917969 33.164062 36.28125 32.214844 38.898438 C 31.171875 41.210938 29.398438 42.574219 26.894531 42.980469 Z M 26.894531 42.980469 "/>
</g>
</defs>
<g id="surface1">
<use xlink:href="#surface5" mask="url(#mask0)"/>
<use xlink:href="#surface8" mask="url(#mask1)"/>
<use xlink:href="#surface11" mask="url(#mask2)"/>
<use xlink:href="#surface14" mask="url(#mask3)"/>
</g>
</svg>
