<?xml version="1.0" encoding="UTF-8"?>
<!DOCTYPE svg PUBLIC "-//W3C//DTD SVG 1.1//EN" "http://www.w3.org/Graphics/SVG/1.1/DTD/svg11.dtd">
<svg xmlns="http://www.w3.org/2000/svg" version="1.1" width="251px" height="214px" style="shape-rendering:geometricPrecision; text-rendering:geometricPrecision; image-rendering:optimizeQuality; fill-rule:evenodd; clip-rule:evenodd" xmlns:xlink="http://www.w3.org/1999/xlink">
<g><path style="opacity:0.28" fill="#c0dbaa" d="M 161.5,30.5 C 160.833,30.5 160.167,30.5 159.5,30.5C 147.246,28.2306 134.912,27.8973 122.5,29.5C 128.26,27.9999 134.26,27.3332 140.5,27.5C 147.842,27.0839 154.842,28.0839 161.5,30.5 Z"/></g>
<g><path style="opacity:0.757" fill="#b7d4a1" d="M 122.5,29.5 C 113.434,32.8617 104.434,36.5284 95.5,40.5C 103.415,34.3824 112.415,30.7157 122.5,29.5 Z"/></g>
<g><path style="opacity:1" fill="#e21116" d="M 147.5,32.5 C 158.195,33.6755 168.195,37.0089 177.5,42.5C 177.586,43.4959 177.252,44.3292 176.5,45C 177.833,45.3333 179.167,45.6667 180.5,46C 179.944,46.3826 179.611,46.8826 179.5,47.5C 177.658,47.7233 175.825,48.0566 174,48.5C 165.804,45.3378 157.47,43.6711 149,43.5C 147.323,42.4841 145.657,41.4841 144,40.5C 137.428,41.4121 131.095,43.0787 125,45.5C 124.586,45.0426 124.086,44.7093 123.5,44.5C 116.754,46.4724 110.087,48.8057 103.5,51.5C 102.03,53.9716 100.03,55.8049 97.5,57C 100.182,59.3303 99.8488,59.8303 96.5,58.5C 95.3764,60.3686 94.5431,62.3686 94,64.5C 92.9326,65.1905 91.7659,65.6905 90.5,66C 91.3366,67.0113 91.67,68.1779 91.5,69.5C 87.0975,66.7392 86.0975,67.5725 88.5,72C 86.4127,72.7922 84.5793,73.9588 83,75.5C 82.586,75.0426 82.086,74.7093 81.5,74.5C 80.5481,76.0453 80.2148,77.712 80.5,79.5C 79.1779,79.33 78.0113,79.6634 77,80.5C 76.0602,82.9418 74.8935,85.2751 73.5,87.5C 72.2638,86.7542 70.9305,86.4208 69.5,86.5C 70.2026,93.7528 69.8692,101.086 68.5,108.5C 69.3306,110.58 70.3306,112.58 71.5,114.5C 71.6112,118.577 72.1112,122.577 73,126.5C 73.2492,125.376 73.7492,124.376 74.5,123.5C 77.0011,127.52 78.1678,131.853 78,136.5C 76.3324,133.79 75.499,133.957 75.5,137C 77.6761,141.172 79.8427,145.339 82,149.5C 84.068,151.396 85.9013,153.396 87.5,155.5C 88.1667,155.5 88.5,155.833 88.5,156.5C 87.7972,159.386 86.7972,162.386 85.5,165.5C 84.5713,164.311 84.238,162.978 84.5,161.5C 82.3888,162.38 80.3888,162.38 78.5,161.5C 77.8333,160.167 76.8333,159.167 75.5,158.5C 71.9728,152.779 68.9728,146.779 66.5,140.5C 65.8505,135.384 64.6839,130.384 63,125.5C 62.3333,115.833 62.3333,106.167 63,96.5C 64.8629,92.3665 65.6963,88.0332 65.5,83.5C 66.6589,79.8487 68.3256,76.5154 70.5,73.5C 75.0682,70.9041 77.7349,66.9041 78.5,61.5C 86.2474,51.7982 95.9141,44.7982 107.5,40.5C 112.067,39.0569 116.734,37.8902 121.5,37C 122.571,36.1482 123.571,35.3149 124.5,34.5C 132.037,32.7419 139.704,32.0753 147.5,32.5 Z"/></g>
<g><path style="opacity:1" fill="#d63925" d="M 124.5,34.5 C 123.571,35.3149 122.571,36.1482 121.5,37C 116.734,37.8902 112.067,39.0569 107.5,40.5C 112.6,37.1268 118.267,35.1268 124.5,34.5 Z"/></g>
<g><path style="opacity:0.565" fill="#badbaa" d="M 167.5,32.5 C 175.032,34.2659 181.699,37.5992 187.5,42.5C 180.564,39.5283 173.897,36.1949 167.5,32.5 Z"/></g>
<g><path style="opacity:1" fill="#df111c" d="M 179.5,47.5 C 180.765,48.4793 182.099,49.4793 183.5,50.5C 184.072,52.9171 185.072,55.0838 186.5,57C 185.409,59.0639 185.242,61.2305 186,63.5C 189,67.8333 192.667,71.5 197,74.5C 199.035,78.4093 198.869,82.2426 196.5,86C 196.57,86.7648 196.903,87.2648 197.5,87.5C 197.5,88.8333 197.5,90.1667 197.5,91.5C 197.657,92.8734 197.49,94.2068 197,95.5C 195.301,94.5939 193.467,94.2606 191.5,94.5C 190.634,91.7456 189.467,89.0789 188,86.5C 188.742,89.7101 189.242,93.0434 189.5,96.5C 188.402,97.6009 188.235,98.9343 189,100.5C 190.699,99.5939 192.533,99.2606 194.5,99.5C 194.666,104.179 194.499,108.845 194,113.5C 191.912,112.692 189.912,111.692 188,110.5C 187.595,112.775 188.095,114.775 189.5,116.5C 190.335,117.943 191.668,118.943 193.5,119.5C 192.544,121.075 191.877,122.742 191.5,124.5C 188.29,125.558 185.29,124.891 182.5,122.5C 182.167,121.833 181.833,121.167 181.5,120.5C 180.469,119.751 179.302,119.085 178,118.5C 177.831,112.141 177.331,105.807 176.5,99.5C 175.927,95.0227 174.26,91.0227 171.5,87.5C 172.7,86.7084 174.033,86.7084 175.5,87.5C 175.989,88.9952 176.655,90.3285 177.5,91.5C 177.5,92.5 177.5,93.5 177.5,94.5C 178.5,94.5 179.5,94.5 180.5,94.5C 181.117,94.6107 181.617,94.944 182,95.5C 182.755,99.2554 182.589,102.922 181.5,106.5C 180.167,107.167 180.167,107.833 181.5,108.5C 182.148,110.086 182.648,111.753 183,113.5C 184.999,111.654 185.832,109.321 185.5,106.5C 184.773,99.4127 183.773,92.4127 182.5,85.5C 183.376,85.6309 184.043,85.2975 184.5,84.5C 183.757,83.8182 183.091,83.1515 182.5,82.5C 183.791,82.7373 184.791,82.404 185.5,81.5C 185.5,80.8333 185.833,80.5 186.5,80.5C 187.885,79.0527 187.552,78.0527 185.5,77.5C 185.611,76.8826 185.944,76.3826 186.5,76C 185.418,74.6703 184.751,73.1703 184.5,71.5C 187.471,74.7537 189.971,78.4204 192,82.5C 188.354,70.6747 180.854,62.0081 169.5,56.5C 167.365,54.9291 165.032,53.5957 162.5,52.5C 161.088,51.4675 159.422,50.8008 157.5,50.5C 156.743,51.8016 155.243,53.1349 153,54.5C 147.867,53.5778 142.701,52.9112 137.5,52.5C 136.508,52.3284 135.842,52.6618 135.5,53.5C 134.662,53.8417 134.328,54.5084 134.5,55.5C 131.794,55.5751 129.127,55.9084 126.5,56.5C 123.763,56.4013 121.096,56.7347 118.5,57.5C 118.586,56.5041 118.252,55.6708 117.5,55C 115.645,54.5779 113.811,54.0779 112,53.5C 110.05,53.7074 108.884,54.7074 108.5,56.5C 102.549,60.45 96.8821,64.7833 91.5,69.5C 91.67,68.1779 91.3366,67.0113 90.5,66C 91.7659,65.6905 92.9326,65.1905 94,64.5C 94.5431,62.3686 95.3764,60.3686 96.5,58.5C 99.8488,59.8303 100.182,59.3303 97.5,57C 100.03,55.8049 102.03,53.9716 103.5,51.5C 110.087,48.8057 116.754,46.4724 123.5,44.5C 124.086,44.7093 124.586,45.0426 125,45.5C 131.095,43.0787 137.428,41.4121 144,40.5C 145.657,41.4841 147.323,42.4841 149,43.5C 157.47,43.6711 165.804,45.3378 174,48.5C 175.825,48.0566 177.658,47.7233 179.5,47.5 Z"/></g>
<g><path style="opacity:1" fill="#9bc471" d="M 159.5,30.5 C 160.167,30.5 160.833,30.5 161.5,30.5C 163.786,30.595 165.786,31.2616 167.5,32.5C 173.897,36.1949 180.564,39.5283 187.5,42.5C 187.672,43.4916 187.338,44.1583 186.5,44.5C 177.659,39.1166 168.326,35.1166 158.5,32.5C 160.698,32.5912 161.031,31.9245 159.5,30.5 Z"/></g>
<g><path style="opacity:1" fill="#f2e3b4" d="M 147.5,32.5 C 150.5,32.5 153.5,32.5 156.5,32.5C 157.167,32.5 157.833,32.5 158.5,32.5C 168.326,35.1166 177.659,39.1166 186.5,44.5C 189.808,47.4715 193.141,50.4715 196.5,53.5C 196.5,53.8333 196.5,54.1667 196.5,54.5C 196.5,55.1667 196.5,55.8333 196.5,56.5C 190.729,51.0614 184.396,46.3948 177.5,42.5C 168.195,37.0089 158.195,33.6755 147.5,32.5 Z"/></g>
<g><path style="opacity:0.749" fill="#a2c88e" d="M 92.5,42.5 C 89.4325,45.8816 86.0992,49.0483 82.5,52C 81.552,52.4828 80.552,52.6495 79.5,52.5C 83.2837,48.4427 87.617,45.1094 92.5,42.5 Z"/></g>
<g><path style="opacity:0.976" fill="#a3c886" d="M 187.5,42.5 C 193.521,46.5212 198.521,51.5212 202.5,57.5C 200.537,56.0401 198.704,54.3734 197,52.5C 196.601,52.7284 196.435,53.0618 196.5,53.5C 193.141,50.4715 189.808,47.4715 186.5,44.5C 187.338,44.1583 187.672,43.4916 187.5,42.5 Z"/></g>
<g><path style="opacity:1" fill="#eee09a" d="M 156.5,32.5 C 153.5,32.5 150.5,32.5 147.5,32.5C 139.704,32.0753 132.037,32.7419 124.5,34.5C 118.267,35.1268 112.6,37.1268 107.5,40.5C 95.9141,44.7982 86.2474,51.7982 78.5,61.5C 74.8442,64.8033 72.1775,68.8033 70.5,73.5C 68.3256,76.5154 66.6589,79.8487 65.5,83.5C 59.7757,99.4123 58.9423,115.746 63,132.5C 63.9425,135.374 65.1092,138.04 66.5,140.5C 68.9728,146.779 71.9728,152.779 75.5,158.5C 75.5,159.167 75.5,159.833 75.5,160.5C 74.8333,160.167 74.1667,159.833 73.5,159.5C 58.3196,136.747 54.3196,112.081 61.5,85.5C 62.3446,84.3285 63.0113,82.9952 63.5,81.5C 82.7998,42.8497 113.8,26.5164 156.5,32.5 Z"/></g>
<g><path style="opacity:1" fill="#83b453" d="M 159.5,30.5 C 161.031,31.9245 160.698,32.5912 158.5,32.5C 157.833,32.5 157.167,32.5 156.5,32.5C 113.8,26.5164 82.7998,42.8497 63.5,81.5C 63.0461,79.7411 63.0461,77.7411 63.5,75.5C 64.0787,72.6689 65.412,70.3356 67.5,68.5C 70.6489,64.905 73.8156,61.2384 77,57.5C 78.0945,55.9221 78.9278,54.2554 79.5,52.5C 80.552,52.6495 81.552,52.4828 82.5,52C 86.0992,49.0483 89.4325,45.8816 92.5,42.5C 92.9731,41.0937 93.9731,40.427 95.5,40.5C 104.434,36.5284 113.434,32.8617 122.5,29.5C 134.912,27.8973 147.246,28.2306 159.5,30.5 Z"/></g>
<g><path style="opacity:1" fill="#e6404c" d="M 162.5,52.5 C 165.032,53.5957 167.365,54.9291 169.5,56.5C 168.833,56.5 168.5,56.8333 168.5,57.5C 165.818,56.099 163.152,54.599 160.5,53C 161.094,52.5357 161.761,52.369 162.5,52.5 Z"/></g>
<g><path style="opacity:1" fill="#94242b" d="M 135.5,53.5 C 136.167,58.8333 136.833,58.8333 137.5,53.5C 138.451,54.9187 138.784,56.5853 138.5,58.5C 137.167,58.5 135.833,58.5 134.5,58.5C 134.5,57.5 134.5,56.5 134.5,55.5C 134.328,54.5084 134.662,53.8417 135.5,53.5 Z"/></g>
<g><path style="opacity:1" fill="#8fbc66" d="M 202.5,57.5 C 217.029,75.9181 222.529,96.9181 219,120.5C 216.413,136.479 209.913,150.479 199.5,162.5C 199.629,160.784 199.962,159.117 200.5,157.5C 207.603,146.298 212.769,134.298 216,121.5C 219.85,95.9096 213.35,73.5763 196.5,54.5C 196.5,54.1667 196.5,53.8333 196.5,53.5C 196.435,53.0618 196.601,52.7284 197,52.5C 198.704,54.3734 200.537,56.0401 202.5,57.5 Z"/></g>
<g><path style="opacity:1" fill="#290603" d="M 137.5,52.5 C 137.5,52.8333 137.5,53.1667 137.5,53.5C 136.833,58.8333 136.167,58.8333 135.5,53.5C 135.842,52.6618 136.508,52.3284 137.5,52.5 Z"/></g>
<g><path style="opacity:0.753" fill="#abcf95" d="M 79.5,52.5 C 78.9278,54.2554 78.0945,55.9221 77,57.5C 73.8156,61.2384 70.6489,64.905 67.5,68.5C 70.3529,62.3128 74.3529,56.9795 79.5,52.5 Z"/></g>
<g><path style="opacity:1" fill="#e64757" d="M 134.5,55.5 C 134.5,56.5 134.5,57.5 134.5,58.5C 131.15,58.665 127.817,58.4983 124.5,58C 125.416,57.7216 126.082,57.2216 126.5,56.5C 129.127,55.9084 131.794,55.5751 134.5,55.5 Z"/></g>
<g><path style="opacity:1" fill="#700c13" d="M 118.5,57.5 C 118.5,57.8333 118.5,58.1667 118.5,58.5C 117.167,58.5 116.5,59.1667 116.5,60.5C 115.596,59.791 115.263,58.791 115.5,57.5C 116.5,57.5 117.5,57.5 118.5,57.5 Z"/></g>
<g><path style="opacity:1" fill="#d81923" d="M 162.5,52.5 C 161.761,52.369 161.094,52.5357 160.5,53C 163.152,54.599 165.818,56.099 168.5,57.5C 174.747,61.0776 180.08,65.7442 184.5,71.5C 183.417,71.4606 182.417,71.1272 181.5,70.5C 179.495,73.0278 177.829,72.6945 176.5,69.5C 175.264,68.7542 173.93,68.4208 172.5,68.5C 175.391,64.1586 174.724,63.1586 170.5,65.5C 170.063,63.9256 169.063,62.7589 167.5,62C 164.378,60.3554 161.212,58.8554 158,57.5C 157.51,58.7932 157.343,60.1266 157.5,61.5C 155.901,61.7678 154.568,61.4345 153.5,60.5C 149.563,60.2065 145.73,60.5399 142,61.5C 138.362,59.9863 134.529,59.3196 130.5,59.5C 127.833,59.6667 125.167,59.8333 122.5,60C 121.309,60.6979 120.309,61.5313 119.5,62.5C 119.768,60.901 119.434,59.5676 118.5,58.5C 118.5,58.1667 118.5,57.8333 118.5,57.5C 121.096,56.7347 123.763,56.4013 126.5,56.5C 126.082,57.2216 125.416,57.7216 124.5,58C 127.817,58.4983 131.15,58.665 134.5,58.5C 135.833,58.5 137.167,58.5 138.5,58.5C 138.784,56.5853 138.451,54.9187 137.5,53.5C 137.5,53.1667 137.5,52.8333 137.5,52.5C 142.701,52.9112 147.867,53.5778 153,54.5C 155.243,53.1349 156.743,51.8016 157.5,50.5C 159.422,50.8008 161.088,51.4675 162.5,52.5 Z"/></g>
<g><path style="opacity:1" fill="#1f0203" d="M 156.5,58.5 C 154.797,59.6602 154.131,58.9935 154.5,56.5C 154.56,55.9569 154.893,55.6236 155.5,55.5C 156.386,56.325 156.719,57.325 156.5,58.5 Z"/></g>
<g><path style="opacity:1" fill="#610710" d="M 154.5,56.5 C 154.131,58.9935 154.797,59.6602 156.5,58.5C 156.179,60.0481 155.179,60.7148 153.5,60.5C 153.232,58.901 153.566,57.5676 154.5,56.5 Z"/></g>
<g><path style="opacity:1" fill="#47090a" d="M 118.5,58.5 C 119.434,59.5676 119.768,60.901 119.5,62.5C 117.821,62.7148 116.821,62.0481 116.5,60.5C 116.5,59.1667 117.167,58.5 118.5,58.5 Z"/></g>
<g><path style="opacity:1" fill="#e7717f" d="M 88.5,77.5 C 87.5416,77.9528 86.7083,78.6195 86,79.5C 85.6012,79.2716 85.4346,78.9382 85.5,78.5C 87.5,75.5 89.5,72.5 91.5,69.5C 96.8821,64.7833 102.549,60.45 108.5,56.5C 109.423,55.6971 110.423,55.5304 111.5,56C 102.035,61.372 94.3681,68.5386 88.5,77.5 Z"/></g>
<g><path style="opacity:1" fill="#ec8d98" d="M 168.5,57.5 C 168.5,56.8333 168.833,56.5 169.5,56.5C 180.854,62.0081 188.354,70.6747 192,82.5C 189.971,78.4204 187.471,74.7537 184.5,71.5C 180.08,65.7442 174.747,61.0776 168.5,57.5 Z"/></g>
<g><path style="opacity:1" fill="#3b0a06" d="M 172.5,68.5 C 170.952,68.1788 170.285,67.1788 170.5,65.5C 174.724,63.1586 175.391,64.1586 172.5,68.5 Z"/></g>
<g><path style="opacity:1" fill="#e11315" d="M 177.5,42.5 C 184.396,46.3948 190.729,51.0614 196.5,56.5C 201.493,63.8102 205.993,71.4769 210,79.5C 211.485,84.1076 212.652,88.7742 213.5,93.5C 213.679,104.19 213.345,114.857 212.5,125.5C 211.85,131.161 209.85,136.161 206.5,140.5C 205.167,140.5 203.833,140.5 202.5,140.5C 202.5,139.5 202.5,138.5 202.5,137.5C 201.5,137.5 200.5,137.5 199.5,137.5C 201.548,130.029 204.215,122.695 207.5,115.5C 207.192,114.692 206.692,114.025 206,113.5C 205.107,114.711 204.274,114.711 203.5,113.5C 204.077,111.894 204.41,110.228 204.5,108.5C 203.229,106.507 202.562,103.841 202.5,100.5C 203.5,100.5 204.5,100.5 205.5,100.5C 205.015,93.8779 202.849,87.8779 199,82.5C 198.802,84.3817 198.302,86.0484 197.5,87.5C 196.903,87.2648 196.57,86.7648 196.5,86C 198.869,82.2426 199.035,78.4093 197,74.5C 192.667,71.5 189,67.8333 186,63.5C 185.242,61.2305 185.409,59.0639 186.5,57C 185.072,55.0838 184.072,52.9171 183.5,50.5C 182.099,49.4793 180.765,48.4793 179.5,47.5C 179.611,46.8826 179.944,46.3826 180.5,46C 179.167,45.6667 177.833,45.3333 176.5,45C 177.252,44.3292 177.586,43.4959 177.5,42.5 Z"/></g>
<g><path style="opacity:1" fill="#db3d25" d="M 78.5,61.5 C 77.7349,66.9041 75.0682,70.9041 70.5,73.5C 72.1775,68.8033 74.8442,64.8033 78.5,61.5 Z"/></g>
<g><path style="opacity:1" fill="#2a0402" d="M 103.5,70.5 C 103.5,71.8333 102.833,72.5 101.5,72.5C 98.8333,68.5 99.5,67.8333 103.5,70.5 Z"/></g>
<g><path style="opacity:1" fill="#df222d" d="M 146.5,64.5 C 151.231,65.3537 155.898,66.5204 160.5,68C 162.684,70.0165 164.684,72.1831 166.5,74.5C 166.167,74.8333 165.833,75.1667 165.5,75.5C 162.833,72.8333 160.167,72.8333 157.5,75.5C 158.689,76.4287 160.022,76.762 161.5,76.5C 161.088,78.9726 162.088,80.3059 164.5,80.5C 166.025,82.2163 167.025,84.2163 167.5,86.5C 165.95,85.5592 164.284,84.8925 162.5,84.5C 161.732,81.4384 159.732,79.7717 156.5,79.5C 154.36,76.6591 151.36,75.3257 147.5,75.5C 147.167,75.5 146.833,75.5 146.5,75.5C 145.5,74.8333 144.5,74.1667 143.5,73.5C 140.829,71.8819 137.829,71.2153 134.5,71.5C 135.793,70.8418 137.293,70.5085 139,70.5C 144.877,71.309 150.71,72.309 156.5,73.5C 156.5,72.5 156.5,71.5 156.5,70.5C 153.342,69.1242 150.009,68.4576 146.5,68.5C 146.5,67.1667 146.5,65.8333 146.5,64.5 Z"/></g>
<g><path style="opacity:1" fill="#df0e18" d="M 170.5,65.5 C 170.285,67.1788 170.952,68.1788 172.5,68.5C 173.93,68.4208 175.264,68.7542 176.5,69.5C 177.829,72.6945 179.495,73.0278 181.5,70.5C 182.417,71.1272 183.417,71.4606 184.5,71.5C 184.751,73.1703 185.418,74.6703 186.5,76C 185.944,76.3826 185.611,76.8826 185.5,77.5C 184.167,77.5 182.833,77.5 181.5,77.5C 181.216,79.4147 181.549,81.0813 182.5,82.5C 183.091,83.1515 183.757,83.8182 184.5,84.5C 184.043,85.2975 183.376,85.6309 182.5,85.5C 180.973,85.573 179.973,84.9063 179.5,83.5C 176.707,82.772 174.707,81.1054 173.5,78.5C 172.209,78.2627 171.209,78.596 170.5,79.5C 169.596,80.209 169.263,81.209 169.5,82.5C 173.701,82.442 174.201,83.442 171,85.5C 168.444,84.7809 167.277,83.1142 167.5,80.5C 166.5,80.5 165.5,80.5 164.5,80.5C 162.088,80.3059 161.088,78.9726 161.5,76.5C 160.022,76.762 158.689,76.4287 157.5,75.5C 160.167,72.8333 162.833,72.8333 165.5,75.5C 165.833,75.1667 166.167,74.8333 166.5,74.5C 164.684,72.1831 162.684,70.0165 160.5,68C 155.898,66.5204 151.231,65.3537 146.5,64.5C 145.5,64.5 144.5,64.5 143.5,64.5C 143.5,65.8333 143.5,67.1667 143.5,68.5C 144.5,68.5 145.5,68.5 146.5,68.5C 150.009,68.4576 153.342,69.1242 156.5,70.5C 156.5,71.5 156.5,72.5 156.5,73.5C 150.71,72.309 144.877,71.309 139,70.5C 137.293,70.5085 135.793,70.8418 134.5,71.5C 124.063,71.9693 115.729,76.3026 109.5,84.5C 108.833,84.5 108.5,84.8333 108.5,85.5C 103.109,90.1985 99.9419,96.1985 99,103.5C 98.1864,108.02 98.353,112.354 99.5,116.5C 100.301,118.042 100.634,119.708 100.5,121.5C 102.233,126.242 103.9,131.076 105.5,136C 103.693,137.236 101.693,137.57 99.5,137C 100.167,137.333 100.833,137.667 101.5,138C 97.5626,141.789 98.5626,143.123 104.5,142C 106.004,140.509 106.837,138.676 107,136.5C 110.021,138.127 110.188,140.127 107.5,142.5C 108.253,145.382 109.919,147.382 112.5,148.5C 113.824,150.558 113.324,152.225 111,153.5C 110.735,151.349 109.735,149.682 108,148.5C 107.228,148.645 106.561,148.978 106,149.5C 104.055,147.819 102.055,147.152 100,147.5C 99.4867,148.527 98.9867,149.527 98.5,150.5C 98.2976,151.364 97.9643,152.364 97.5,153.5C 96.2742,151.722 94.6075,150.722 92.5,150.5C 91.5,149.167 90.5,147.833 89.5,146.5C 88.8333,145.5 88.1667,144.5 87.5,143.5C 89.5313,143.028 91.1979,142.028 92.5,140.5C 93.8574,136.107 95.524,131.773 97.5,127.5C 96.9473,125.448 95.9473,125.115 94.5,126.5C 92.2156,128.688 89.7156,130.688 87,132.5C 82.4671,129.411 82.4671,126.411 87,123.5C 87.7401,122.251 87.5735,121.251 86.5,120.5C 84.7354,119.539 82.7354,119.205 80.5,119.5C 80.5,114.833 80.5,110.167 80.5,105.5C 82.4147,105.784 84.0813,105.451 85.5,104.5C 85.5,103.5 85.5,102.5 85.5,101.5C 85.5,100.833 85.5,100.167 85.5,99.5C 86.1346,95.757 87.6346,92.4237 90,89.5C 90.6667,90.1667 91.3333,90.8333 92,91.5C 90.0584,99.3167 89.3917,107.317 90,115.5C 90.5831,117.002 91.4164,118.335 92.5,119.5C 93.2749,117.157 93.9416,114.823 94.5,112.5C 94.5,111.167 93.8333,110.5 92.5,110.5C 91.5889,105.633 92.9222,101.633 96.5,98.5C 97.9315,95.4023 99.5982,92.2356 101.5,89C 101.265,88.1268 100.931,87.2935 100.5,86.5C 102.045,85.5481 103.712,85.2148 105.5,85.5C 105.843,83.5168 105.176,82.1834 103.5,81.5C 98.3401,80.9092 95.6734,77.9092 95.5,72.5C 97.6112,71.6201 99.6112,71.6201 101.5,72.5C 102.833,72.5 103.5,71.8333 103.5,70.5C 103.586,69.5041 103.252,68.6708 102.5,68C 105.455,64.0933 109.288,61.2599 114,59.5C 114.684,60.7839 114.517,61.9505 113.5,63C 115.712,63.7891 117.712,63.6225 119.5,62.5C 120.309,61.5313 121.309,60.6979 122.5,60C 125.167,59.8333 127.833,59.6667 130.5,59.5C 134.529,59.3196 138.362,59.9863 142,61.5C 145.73,60.5399 149.563,60.2065 153.5,60.5C 154.568,61.4345 155.901,61.7678 157.5,61.5C 157.343,60.1266 157.51,58.7932 158,57.5C 161.212,58.8554 164.378,60.3554 167.5,62C 169.063,62.7589 170.063,63.9256 170.5,65.5 Z"/></g>
<g><path style="opacity:1" fill="#e73549" d="M 113.5,70.5 C 113.5,71.5 113.5,72.5 113.5,73.5C 112.518,74.1408 111.518,74.8075 110.5,75.5C 109.248,72.7123 110.248,71.0456 113.5,70.5 Z"/></g>
<g><path style="opacity:1" fill="#5e0d13" d="M 113.5,70.5 C 115.912,70.6941 116.912,72.0274 116.5,74.5C 115.391,74.4431 114.391,74.1098 113.5,73.5C 113.5,72.5 113.5,71.5 113.5,70.5 Z"/></g>
<g><path style="opacity:1" fill="#420503" d="M 159.5,69.5 C 160.776,70.3864 160.776,71.3864 159.5,72.5C 158.438,71.5754 158.438,70.5754 159.5,69.5 Z"/></g>
<g><path style="opacity:1" fill="#df2e3e" d="M 134.5,71.5 C 137.829,71.2153 140.829,71.8819 143.5,73.5C 134.171,72.2832 125.504,74.1166 117.5,79C 114.935,81.0795 112.268,82.9128 109.5,84.5C 115.729,76.3026 124.063,71.9693 134.5,71.5 Z"/></g>
<g><path style="opacity:1" fill="#dc2a38" d="M 130.5,68.5 C 130.719,67.325 130.386,66.325 129.5,65.5C 128.702,65.9569 128.369,66.6236 128.5,67.5C 122.443,66.9105 118.443,69.2438 116.5,74.5C 116.912,72.0274 115.912,70.6941 113.5,70.5C 119.152,65.3428 125.819,63.5095 133.5,65C 132.186,65.985 131.186,67.1516 130.5,68.5 Z"/></g>
<g><path style="opacity:1" fill="#3d0506" d="M 130.5,68.5 C 129.508,68.6716 128.842,68.3382 128.5,67.5C 128.369,66.6236 128.702,65.9569 129.5,65.5C 130.386,66.325 130.719,67.325 130.5,68.5 Z"/></g>
<g><path style="opacity:1" fill="#640c11" d="M 146.5,64.5 C 146.5,65.8333 146.5,67.1667 146.5,68.5C 145.5,68.5 144.5,68.5 143.5,68.5C 143.5,67.1667 143.5,65.8333 143.5,64.5C 144.5,64.5 145.5,64.5 146.5,64.5 Z"/></g>
<g><path style="opacity:0.624" fill="#d25b63" d="M 147.5,75.5 C 151.36,75.3257 154.36,76.6591 156.5,79.5C 153.314,78.4031 150.314,77.0697 147.5,75.5 Z"/></g>
<g><path style="opacity:0.267" fill="#d2616c" d="M 143.5,73.5 C 144.5,74.1667 145.5,74.8333 146.5,75.5C 130.298,72.452 117.298,77.452 107.5,90.5C 107.629,88.7839 107.962,87.1172 108.5,85.5C 108.5,84.8333 108.833,84.5 109.5,84.5C 112.268,82.9128 114.935,81.0795 117.5,79C 125.504,74.1166 134.171,72.2832 143.5,73.5 Z"/></g>
<g><path style="opacity:1" fill="#ad0b18" d="M 185.5,77.5 C 187.552,78.0527 187.885,79.0527 186.5,80.5C 185.377,77.9586 184.044,77.9586 182.5,80.5C 183.325,81.3857 184.325,81.719 185.5,81.5C 184.791,82.404 183.791,82.7373 182.5,82.5C 181.549,81.0813 181.216,79.4147 181.5,77.5C 182.833,77.5 184.167,77.5 185.5,77.5 Z"/></g>
<g><path style="opacity:1" fill="#790a11" d="M 170.5,79.5 C 171.209,78.596 172.209,78.2627 173.5,78.5C 173.737,79.791 173.404,80.791 172.5,81.5C 172.5,80.1667 171.833,79.5 170.5,79.5 Z"/></g>
<g><path style="opacity:1" fill="#320502" d="M 186.5,80.5 C 185.833,80.5 185.5,80.8333 185.5,81.5C 184.325,81.719 183.325,81.3857 182.5,80.5C 184.044,77.9586 185.377,77.9586 186.5,80.5 Z"/></g>
<g><path style="opacity:0.588" fill="#d46a71" d="M 156.5,79.5 C 159.732,79.7717 161.732,81.4384 162.5,84.5C 160.46,82.823 158.46,81.1563 156.5,79.5 Z"/></g>
<g><path style="opacity:1" fill="#96c37a" d="M 63.5,75.5 C 63.0461,77.7411 63.0461,79.7411 63.5,81.5C 63.0113,82.9952 62.3446,84.3285 61.5,85.5C 59.9862,87.364 58.6528,89.364 57.5,91.5C 58.4146,85.6865 60.4146,80.3531 63.5,75.5 Z"/></g>
<g><path style="opacity:1" fill="#de2736" d="M 88.5,77.5 C 88.2969,79.0443 87.6302,80.3777 86.5,81.5C 87.6016,82.1757 88.6016,82.8423 89.5,83.5C 92.7021,84.0259 95.8688,84.0259 99,83.5C 97.8622,87.2673 97.3622,91.2673 97.5,95.5C 96.2921,94.7659 94.9587,94.4326 93.5,94.5C 93.5,95.5 93.5,96.5 93.5,97.5C 94.5,97.5 95.5,97.5 96.5,97.5C 96.5,97.8333 96.5,98.1667 96.5,98.5C 92.9222,101.633 91.5889,105.633 92.5,110.5C 91.9569,110.56 91.6236,110.893 91.5,111.5C 92.325,112.386 93.325,112.719 94.5,112.5C 93.9416,114.823 93.2749,117.157 92.5,119.5C 91.4164,118.335 90.5831,117.002 90,115.5C 89.3917,107.317 90.0584,99.3167 92,91.5C 91.3333,90.8333 90.6667,90.1667 90,89.5C 87.6346,92.4237 86.1346,95.757 85.5,99.5C 85.344,94.7908 85.344,90.1241 85.5,85.5C 85.6309,84.6236 85.2975,83.9569 84.5,83.5C 81.853,86.1795 80.5196,85.5129 80.5,81.5C 82.9589,81.69 84.6255,80.69 85.5,78.5C 85.4346,78.9382 85.6012,79.2716 86,79.5C 86.7083,78.6195 87.5416,77.9528 88.5,77.5 Z"/></g>
<g><path style="opacity:1" fill="#2f0807" d="M 89.5,83.5 C 92.0401,85.666 91.3734,86.666 87.5,86.5C 87.2852,84.8212 87.9519,83.8212 89.5,83.5 Z"/></g>
<g><path style="opacity:1" fill="#df101d" d="M 91.5,69.5 C 89.5,72.5 87.5,75.5 85.5,78.5C 84.6255,80.69 82.9589,81.69 80.5,81.5C 80.5196,85.5129 81.853,86.1795 84.5,83.5C 85.2975,83.9569 85.6309,84.6236 85.5,85.5C 84.12,88.7735 82.62,92.1068 81,95.5C 79.0714,92.7538 79.238,90.0871 81.5,87.5C 80.7248,85.5247 79.3914,84.6913 77.5,85C 74.3996,88.3431 72.8996,92.1764 73,96.5C 74.02,95.1095 74.8534,93.6095 75.5,92C 76.6001,91.5683 77.2668,92.0683 77.5,93.5C 74.7246,100.817 74.0579,108.15 75.5,115.5C 76.0124,127.84 80.3457,138.507 88.5,147.5C 89.1098,148.391 89.4431,149.391 89.5,150.5C 91.19,154.187 90.69,154.854 88,152.5C 87.5172,153.448 87.3505,154.448 87.5,155.5C 85.9013,153.396 84.068,151.396 82,149.5C 79.8427,145.339 77.6761,141.172 75.5,137C 75.499,133.957 76.3324,133.79 78,136.5C 78.1678,131.853 77.0011,127.52 74.5,123.5C 73.7492,124.376 73.2492,125.376 73,126.5C 72.1112,122.577 71.6112,118.577 71.5,114.5C 70.3306,112.58 69.3306,110.58 68.5,108.5C 69.8692,101.086 70.2026,93.7528 69.5,86.5C 70.9305,86.4208 72.2638,86.7542 73.5,87.5C 74.8935,85.2751 76.0602,82.9418 77,80.5C 78.0113,79.6634 79.1779,79.33 80.5,79.5C 80.2148,77.712 80.5481,76.0453 81.5,74.5C 82.086,74.7093 82.586,75.0426 83,75.5C 84.5793,73.9588 86.4127,72.7922 88.5,72C 86.0975,67.5725 87.0975,66.7392 91.5,69.5 Z"/></g>
<g><path style="opacity:1" fill="#da1725" d="M 118.5,57.5 C 117.5,57.5 116.5,57.5 115.5,57.5C 115.263,58.791 115.596,59.791 116.5,60.5C 116.821,62.0481 117.821,62.7148 119.5,62.5C 117.712,63.6225 115.712,63.7891 113.5,63C 114.517,61.9505 114.684,60.7839 114,59.5C 109.288,61.2599 105.455,64.0933 102.5,68C 103.252,68.6708 103.586,69.5041 103.5,70.5C 99.5,67.8333 98.8333,68.5 101.5,72.5C 99.6112,71.6201 97.6112,71.6201 95.5,72.5C 95.6734,77.9092 98.3401,80.9092 103.5,81.5C 105.176,82.1834 105.843,83.5168 105.5,85.5C 103.712,85.2148 102.045,85.5481 100.5,86.5C 100.931,87.2935 101.265,88.1268 101.5,89C 99.5982,92.2356 97.9315,95.4023 96.5,98.5C 96.5,98.1667 96.5,97.8333 96.5,97.5C 97.3382,97.1583 97.6716,96.4916 97.5,95.5C 97.3622,91.2673 97.8622,87.2673 99,83.5C 95.8688,84.0259 92.7021,84.0259 89.5,83.5C 88.6016,82.8423 87.6016,82.1757 86.5,81.5C 87.6302,80.3777 88.2969,79.0443 88.5,77.5C 94.3681,68.5386 102.035,61.372 111.5,56C 110.423,55.5304 109.423,55.6971 108.5,56.5C 108.884,54.7074 110.05,53.7074 112,53.5C 113.811,54.0779 115.645,54.5779 117.5,55C 118.252,55.6708 118.586,56.5041 118.5,57.5 Z"/></g>
<g><path style="opacity:1" fill="#490606" d="M 103.5,81.5 C 104.562,82.5754 104.562,83.5754 103.5,84.5C 100.988,83.2162 100.988,82.2162 103.5,81.5 Z"/></g>
<g><path style="opacity:1" fill="#c33f47" d="M 180.5,93.5 C 180.5,93.8333 180.5,94.1667 180.5,94.5C 179.5,94.5 178.5,94.5 177.5,94.5C 177.5,93.5 177.5,92.5 177.5,91.5C 177.5,90.1667 177.5,88.8333 177.5,87.5C 178.822,87.33 179.989,87.6634 181,88.5C 181.78,90.3869 181.613,92.0536 180.5,93.5 Z"/></g>
<g><path style="opacity:1" fill="#240506" d="M 180.5,93.5 C 178.663,93.3605 178.33,92.6939 179.5,91.5C 180.298,91.9569 180.631,92.6236 180.5,93.5 Z"/></g>
<g><path style="opacity:1" fill="#e1323f" d="M 179.5,83.5 C 179.973,84.9063 180.973,85.573 182.5,85.5C 183.773,92.4127 184.773,99.4127 185.5,106.5C 185.832,109.321 184.999,111.654 183,113.5C 182.648,111.753 182.148,110.086 181.5,108.5C 185.5,107.833 185.5,107.167 181.5,106.5C 182.589,102.922 182.755,99.2554 182,95.5C 181.617,94.944 181.117,94.6107 180.5,94.5C 180.5,94.1667 180.5,93.8333 180.5,93.5C 181.613,92.0536 181.78,90.3869 181,88.5C 179.989,87.6634 178.822,87.33 177.5,87.5C 177.5,88.8333 177.5,90.1667 177.5,91.5C 176.655,90.3285 175.989,88.9952 175.5,87.5C 175.5,86.1667 175.5,84.8333 175.5,83.5C 176.833,83.5 178.167,83.5 179.5,83.5 Z"/></g>
<g><path style="opacity:1" fill="#5e0c12" d="M 97.5,95.5 C 97.6716,96.4916 97.3382,97.1583 96.5,97.5C 95.5,97.5 94.5,97.5 93.5,97.5C 93.5,96.5 93.5,95.5 93.5,94.5C 94.9587,94.4326 96.2921,94.7659 97.5,95.5 Z"/></g>
<g><path style="opacity:0.345" fill="#dc8c96" d="M 107.5,90.5 C 106.403,93.6865 105.07,96.6865 103.5,99.5C 103.5,98.1667 103.5,96.8333 103.5,95.5C 104.29,94.3915 104.79,93.0581 105,91.5C 105.671,90.7476 106.504,90.4142 107.5,90.5 Z"/></g>
<g><path style="opacity:1" fill="#e23041" d="M 108.5,85.5 C 107.962,87.1172 107.629,88.7839 107.5,90.5C 106.504,90.4142 105.671,90.7476 105,91.5C 104.79,93.0581 104.29,94.3915 103.5,95.5C 100.032,101.967 98.6985,108.967 99.5,116.5C 98.353,112.354 98.1864,108.02 99,103.5C 99.9419,96.1985 103.109,90.1985 108.5,85.5 Z"/></g>
<g><path style="opacity:1" fill="#d51723" d="M 197.5,91.5 C 199.482,93.597 200.482,96.2637 200.5,99.5C 199.883,99.3893 199.383,99.056 199,98.5C 198.501,102.152 198.335,105.818 198.5,109.5C 198.216,116.939 196.549,123.939 193.5,130.5C 193.405,128.214 192.738,126.214 191.5,124.5C 191.877,122.742 192.544,121.075 193.5,119.5C 191.668,118.943 190.335,117.943 189.5,116.5C 188.095,114.775 187.595,112.775 188,110.5C 189.912,111.692 191.912,112.692 194,113.5C 194.499,108.845 194.666,104.179 194.5,99.5C 192.533,99.2606 190.699,99.5939 189,100.5C 188.235,98.9343 188.402,97.6009 189.5,96.5C 189.242,93.0434 188.742,89.7101 188,86.5C 189.467,89.0789 190.634,91.7456 191.5,94.5C 193.467,94.2606 195.301,94.5939 197,95.5C 197.49,94.2068 197.657,92.8734 197.5,91.5 Z"/></g>
<g><path style="opacity:1" fill="#330605" d="M 189.5,96.5 C 191.166,95.3336 192.833,95.3336 194.5,96.5C 192.494,98.8963 190.828,98.8963 189.5,96.5 Z"/></g>
<g><path style="opacity:1" fill="#e35061" d="M 200.5,99.5 C 200.5,100.167 200.5,100.833 200.5,101.5C 200.818,106.032 200.485,110.366 199.5,114.5C 199.784,112.585 199.451,110.919 198.5,109.5C 198.335,105.818 198.501,102.152 199,98.5C 199.383,99.056 199.883,99.3893 200.5,99.5 Z"/></g>
<g><path style="opacity:1" fill="#3c070b" d="M 85.5,101.5 C 85.5,102.5 85.5,103.5 85.5,104.5C 83.3352,104.884 81.6685,104.217 80.5,102.5C 82.0453,101.548 83.712,101.215 85.5,101.5 Z"/></g>
<g><path style="opacity:1" fill="#d33720" d="M 213.5,93.5 C 214.166,97.8205 214.499,102.32 214.5,107C 214.711,113.414 214.045,119.581 212.5,125.5C 213.345,114.857 213.679,104.19 213.5,93.5 Z"/></g>
<g><path style="opacity:0.745" fill="#9dc382" d="M 57.5,91.5 C 56.7865,101.484 56.4532,111.484 56.5,121.5C 56.1667,121.5 55.8333,121.5 55.5,121.5C 53.83,111.215 54.4967,101.215 57.5,91.5 Z"/></g>
<g><path style="opacity:1" fill="#500b0e" d="M 181.5,106.5 C 185.5,107.167 185.5,107.833 181.5,108.5C 180.167,107.833 180.167,107.167 181.5,106.5 Z"/></g>
<g><path style="opacity:0.329" fill="#e39da8" d="M 103.5,99.5 C 101.892,107.694 102.559,115.694 105.5,123.5C 103.864,122.251 102.697,120.584 102,118.5C 101.333,113.167 101.333,107.833 102,102.5C 102.232,101.263 102.732,100.263 103.5,99.5 Z"/></g>
<g><path style="opacity:0.902" fill="#de5e6f" d="M 162.5,84.5 C 164.284,84.8925 165.95,85.5592 167.5,86.5C 176.551,99.3466 177.885,113.013 171.5,127.5C 170.512,128.795 169.512,130.128 168.5,131.5C 162.937,137.08 156.604,141.413 149.5,144.5C 148.167,144.5 146.833,144.5 145.5,144.5C 145.5,144.167 145.5,143.833 145.5,143.5C 147.38,143.771 148.713,143.104 149.5,141.5C 152.313,141.975 154.313,140.975 155.5,138.5C 157.783,138.392 159.783,137.559 161.5,136C 171.286,126.809 174.953,115.642 172.5,102.5C 170.752,95.675 167.419,89.675 162.5,84.5 Z"/></g>
<g><path style="opacity:1" fill="#450a0b" d="M 92.5,110.5 C 93.8333,110.5 94.5,111.167 94.5,112.5C 93.325,112.719 92.325,112.386 91.5,111.5C 91.6236,110.893 91.9569,110.56 92.5,110.5 Z"/></g>
<g><path style="opacity:1" fill="#d72b1d" d="M 65.5,83.5 C 65.6963,88.0332 64.8629,92.3665 63,96.5C 62.3333,106.167 62.3333,115.833 63,125.5C 64.6839,130.384 65.8505,135.384 66.5,140.5C 65.1092,138.04 63.9425,135.374 63,132.5C 58.9423,115.746 59.7757,99.4123 65.5,83.5 Z"/></g>
<g><path style="opacity:1" fill="#e15868" d="M 103.5,95.5 C 103.5,96.8333 103.5,98.1667 103.5,99.5C 102.732,100.263 102.232,101.263 102,102.5C 101.333,107.833 101.333,113.167 102,118.5C 102.697,120.584 103.864,122.251 105.5,123.5C 106.925,126.688 108.592,129.688 110.5,132.5C 110.5,133.167 110.5,133.833 110.5,134.5C 109.185,133.524 107.852,132.524 106.5,131.5C 104.987,127.795 102.987,124.461 100.5,121.5C 100.634,119.708 100.301,118.042 99.5,116.5C 98.6985,108.967 100.032,101.967 103.5,95.5 Z"/></g>
<g><path style="opacity:1" fill="#46080a" d="M 189.5,116.5 C 189.97,115.307 190.97,114.64 192.5,114.5C 196.285,115.291 196.285,116.291 192.5,117.5C 191.416,117.315 190.416,116.982 189.5,116.5 Z"/></g>
<g><path style="opacity:1" fill="#e77480" d="M 198.5,109.5 C 199.451,110.919 199.784,112.585 199.5,114.5C 197.222,130.392 190.222,143.725 178.5,154.5C 178.167,154.5 177.833,154.5 177.5,154.5C 184.252,148 189.252,140.333 192.5,131.5C 193.167,131.5 193.5,131.167 193.5,130.5C 196.549,123.939 198.216,116.939 198.5,109.5 Z"/></g>
<g><path style="opacity:1" fill="#700a11" d="M 181.5,120.5 C 181.833,121.167 182.167,121.833 182.5,122.5C 181.432,123.434 180.099,123.768 178.5,123.5C 178.5,122.5 178.5,121.5 178.5,120.5C 179.5,120.5 180.5,120.5 181.5,120.5 Z"/></g>
<g><path style="opacity:1" fill="#e66e7c" d="M 87.5,143.5 C 88.1667,144.5 88.8333,145.5 89.5,146.5C 88.8333,146.5 88.5,146.833 88.5,147.5C 80.3457,138.507 76.0124,127.84 75.5,115.5C 75.3367,113.143 75.5034,110.81 76,108.5C 76.7661,121.297 80.5994,132.964 87.5,143.5 Z"/></g>
<g><path style="opacity:0.894" fill="#db8a98" d="M 172.5,102.5 C 174.953,115.642 171.286,126.809 161.5,136C 159.783,137.559 157.783,138.392 155.5,138.5C 168.103,129.954 173.77,117.954 172.5,102.5 Z"/></g>
<g><path style="opacity:1" fill="#e11524" d="M 173.5,78.5 C 174.707,81.1054 176.707,82.772 179.5,83.5C 178.167,83.5 176.833,83.5 175.5,83.5C 175.5,84.8333 175.5,86.1667 175.5,87.5C 174.033,86.7084 172.7,86.7084 171.5,87.5C 174.26,91.0227 175.927,95.0227 176.5,99.5C 177.331,105.807 177.831,112.141 178,118.5C 179.302,119.085 180.469,119.751 181.5,120.5C 180.5,120.5 179.5,120.5 178.5,120.5C 178.5,121.5 178.5,122.5 178.5,123.5C 180.099,123.768 181.432,123.434 182.5,122.5C 185.29,124.891 188.29,125.558 191.5,124.5C 192.738,126.214 193.405,128.214 193.5,130.5C 193.5,131.167 193.167,131.5 192.5,131.5C 191.034,130.653 190.2,129.32 190,127.5C 188.961,128.244 188.461,129.244 188.5,130.5C 185.307,130.476 181.974,129.976 178.5,129C 177.333,128.5 176.5,127.667 176,126.5C 175.667,127.5 175.333,128.5 175,129.5C 174.184,128.177 173.017,127.511 171.5,127.5C 177.885,113.013 176.551,99.3466 167.5,86.5C 167.025,84.2163 166.025,82.2163 164.5,80.5C 165.5,80.5 166.5,80.5 167.5,80.5C 167.277,83.1142 168.444,84.7809 171,85.5C 174.201,83.442 173.701,82.442 169.5,82.5C 169.263,81.209 169.596,80.209 170.5,79.5C 171.833,79.5 172.5,80.1667 172.5,81.5C 173.404,80.791 173.737,79.791 173.5,78.5 Z"/></g>
<g><path style="opacity:1" fill="#290503" d="M 170.5,79.5 C 171.833,79.5 172.5,80.1667 172.5,81.5C 171.167,81.5 170.5,80.8333 170.5,79.5 Z"/></g>
<g><path style="opacity:1" fill="#5a0709" d="M 97.5,127.5 C 95.8041,129.129 94.8041,128.796 94.5,126.5C 95.9473,125.115 96.9473,125.448 97.5,127.5 Z"/></g>
<g><path style="opacity:1" fill="#d81524" d="M 85.5,85.5 C 85.344,90.1241 85.344,94.7908 85.5,99.5C 85.5,100.167 85.5,100.833 85.5,101.5C 83.712,101.215 82.0453,101.548 80.5,102.5C 81.6685,104.217 83.3352,104.884 85.5,104.5C 84.0813,105.451 82.4147,105.784 80.5,105.5C 80.5,110.167 80.5,114.833 80.5,119.5C 82.7354,119.205 84.7354,119.539 86.5,120.5C 87.5735,121.251 87.7401,122.251 87,123.5C 82.4671,126.411 82.4671,129.411 87,132.5C 89.7156,130.688 92.2156,128.688 94.5,126.5C 94.8041,128.796 95.8041,129.129 97.5,127.5C 95.524,131.773 93.8574,136.107 92.5,140.5C 91.1979,142.028 89.5313,143.028 87.5,143.5C 80.5994,132.964 76.7661,121.297 76,108.5C 75.5034,110.81 75.3367,113.143 75.5,115.5C 74.0579,108.15 74.7246,100.817 77.5,93.5C 77.2668,92.0683 76.6001,91.5683 75.5,92C 74.8534,93.6095 74.02,95.1095 73,96.5C 72.8996,92.1764 74.3996,88.3431 77.5,85C 79.3914,84.6913 80.7248,85.5247 81.5,87.5C 79.238,90.0871 79.0714,92.7538 81,95.5C 82.62,92.1068 84.12,88.7735 85.5,85.5 Z"/></g>
<g><path style="opacity:1" fill="#390706" d="M 86.5,120.5 C 85.9517,123.084 84.285,124.084 81.5,123.5C 81.5,122.5 81.5,121.5 81.5,120.5C 83.1667,120.5 84.8333,120.5 86.5,120.5 Z"/></g>
<g><path style="opacity:1" fill="#3e0908" d="M 186.5,132.5 C 189.338,134.306 189.005,135.306 185.5,135.5C 183.896,134.713 183.229,133.38 183.5,131.5C 184.791,131.263 185.791,131.596 186.5,132.5 Z"/></g>
<g><path style="opacity:1" fill="#e11619" d="M 206.5,140.5 C 198.347,158.819 185.014,171.986 166.5,180C 161.403,182.385 156.069,183.885 150.5,184.5C 142.269,186.181 133.936,186.847 125.5,186.5C 106.625,184.229 90.9584,175.895 78.5,161.5C 80.3888,162.38 82.3888,162.38 84.5,161.5C 84.238,162.978 84.5713,164.311 85.5,165.5C 86.7972,162.386 87.7972,159.386 88.5,156.5C 94.9714,163.242 102.638,168.242 111.5,171.5C 112.5,172.167 113.5,172.833 114.5,173.5C 124.541,175.314 134.708,176.981 145,178.5C 148.762,176.547 152.595,174.88 156.5,173.5C 161.361,173.57 165.361,171.737 168.5,168C 172.493,167.678 175.826,166.012 178.5,163C 179.448,162.517 180.448,162.351 181.5,162.5C 181.561,160.408 182.561,158.908 184.5,158C 183.137,155.871 183.471,155.371 185.5,156.5C 187.581,153.697 189.914,151.197 192.5,149C 192.355,148.228 192.022,147.561 191.5,147C 192.664,141.511 194.664,136.345 197.5,131.5C 198.086,131.709 198.586,132.043 199,132.5C 199.576,130.623 199.409,128.789 198.5,127C 200.908,124.471 202.575,121.471 203.5,118C 202.387,112.42 201.387,106.92 200.5,101.5C 200.5,100.833 200.5,100.167 200.5,99.5C 200.482,96.2637 199.482,93.597 197.5,91.5C 197.5,90.1667 197.5,88.8333 197.5,87.5C 198.302,86.0484 198.802,84.3817 199,82.5C 202.849,87.8779 205.015,93.8779 205.5,100.5C 204.5,100.5 203.5,100.5 202.5,100.5C 202.562,103.841 203.229,106.507 204.5,108.5C 204.41,110.228 204.077,111.894 203.5,113.5C 204.274,114.711 205.107,114.711 206,113.5C 206.692,114.025 207.192,114.692 207.5,115.5C 204.215,122.695 201.548,130.029 199.5,137.5C 200.5,137.5 201.5,137.5 202.5,137.5C 202.5,138.5 202.5,139.5 202.5,140.5C 203.833,140.5 205.167,140.5 206.5,140.5 Z"/></g>
<g><path style="opacity:1" fill="#2d0503" d="M 92.5,140.5 C 91.4168,140.539 90.4168,140.873 89.5,141.5C 88.6143,140.675 88.281,139.675 88.5,138.5C 90.4832,138.157 91.8166,138.824 92.5,140.5 Z"/></g>
<g><path style="opacity:1" fill="#88b855" d="M 61.5,85.5 C 54.3196,112.081 58.3196,136.747 73.5,159.5C 71.6458,158.759 69.9791,157.759 68.5,156.5C 62.9236,145.439 58.9236,133.772 56.5,121.5C 56.4532,111.484 56.7865,101.484 57.5,91.5C 58.6528,89.364 59.9862,87.364 61.5,85.5 Z"/></g>
<g><path style="opacity:1" fill="#df111c" d="M 100.5,121.5 C 102.987,124.461 104.987,127.795 106.5,131.5C 107.852,132.524 109.185,133.524 110.5,134.5C 110.317,136.936 110.984,139.103 112.5,141C 117.935,142.694 123.269,144.694 128.5,147C 134.833,147.667 141.167,147.667 147.5,147C 148.381,146.292 149.047,145.458 149.5,144.5C 157.689,142.994 164.022,138.66 168.5,131.5C 169.512,130.128 170.512,128.795 171.5,127.5C 173.017,127.511 174.184,128.177 175,129.5C 175.333,128.5 175.667,127.5 176,126.5C 176.5,127.667 177.333,128.5 178.5,129C 181.974,129.976 185.307,130.476 188.5,130.5C 189.043,130.56 189.376,130.893 189.5,131.5C 188.675,132.386 187.675,132.719 186.5,132.5C 185.791,131.596 184.791,131.263 183.5,131.5C 183.229,133.38 183.896,134.713 185.5,135.5C 184.649,140.201 182.482,144.201 179,147.5C 177.586,148.413 176.086,148.413 174.5,147.5C 173.791,146.596 172.791,146.263 171.5,146.5C 171.5,147.5 171.5,148.5 171.5,149.5C 170.417,149.539 169.417,149.873 168.5,150.5C 166.821,148.896 164.821,148.229 162.5,148.5C 162.737,147.209 162.404,146.209 161.5,145.5C 160.791,144.596 159.791,144.263 158.5,144.5C 158.714,146.144 158.38,147.644 157.5,149C 154.829,150.544 151.996,151.71 149,152.5C 148.617,151.944 148.117,151.611 147.5,151.5C 146.5,150.167 145.5,150.167 144.5,151.5C 141.169,153.298 137.502,153.964 133.5,153.5C 133.5,152.5 133.5,151.5 133.5,150.5C 131.076,150.192 128.743,150.526 126.5,151.5C 127.506,152.396 127.506,153.062 126.5,153.5C 123.269,152.54 120.269,151.207 117.5,149.5C 117.715,147.821 117.048,146.821 115.5,146.5C 113.821,146.285 112.821,146.952 112.5,148.5C 109.919,147.382 108.253,145.382 107.5,142.5C 110.188,140.127 110.021,138.127 107,136.5C 106.837,138.676 106.004,140.509 104.5,142C 98.5626,143.123 97.5626,141.789 101.5,138C 100.833,137.667 100.167,137.333 99.5,137C 101.693,137.57 103.693,137.236 105.5,136C 103.9,131.076 102.233,126.242 100.5,121.5 Z"/></g>
<g><path style="opacity:1" fill="#e23440" d="M 110.5,134.5 C 114.879,138.674 119.879,141.84 125.5,144C 132.178,145.703 138.845,145.869 145.5,144.5C 146.833,144.5 148.167,144.5 149.5,144.5C 149.047,145.458 148.381,146.292 147.5,147C 141.167,147.667 134.833,147.667 128.5,147C 123.269,144.694 117.935,142.694 112.5,141C 110.984,139.103 110.317,136.936 110.5,134.5 Z"/></g>
<g><path style="opacity:0.553" fill="#ecc2cb" d="M 149.5,141.5 C 148.713,143.104 147.38,143.771 145.5,143.5C 140.968,143.818 136.634,143.485 132.5,142.5C 138.203,142.625 143.87,142.292 149.5,141.5 Z"/></g>
<g><path style="opacity:0.953" fill="#e99da9" d="M 110.5,132.5 C 116.805,137.984 124.139,141.317 132.5,142.5C 136.634,143.485 140.968,143.818 145.5,143.5C 145.5,143.833 145.5,144.167 145.5,144.5C 138.845,145.869 132.178,145.703 125.5,144C 119.879,141.84 114.879,138.674 110.5,134.5C 110.5,133.833 110.5,133.167 110.5,132.5 Z"/></g>
<g><path style="opacity:1" fill="#e23a4b" d="M 168.5,131.5 C 164.022,138.66 157.689,142.994 149.5,144.5C 156.604,141.413 162.937,137.08 168.5,131.5 Z"/></g>
<g><path style="opacity:0.769" fill="#e0a4ae" d="M 155.5,138.5 C 154.313,140.975 152.313,141.975 149.5,141.5C 151.456,140.508 153.456,139.508 155.5,138.5 Z"/></g>
<g><path style="opacity:1" fill="#300501" d="M 102.5,138.5 C 105.797,138.329 106.131,138.995 103.5,140.5C 102.702,140.043 102.369,139.376 102.5,138.5 Z"/></g>
<g><path style="opacity:1" fill="#460608" d="M 170.5,134.5 C 171.5,134.5 172.5,134.5 173.5,134.5C 173.5,135.5 173.5,136.5 173.5,137.5C 172.5,137.5 171.5,137.5 170.5,137.5C 170.5,136.5 170.5,135.5 170.5,134.5 Z"/></g>
<g><path style="opacity:0.247" fill="#aecf9b" d="M 55.5,121.5 C 55.8333,121.5 56.1667,121.5 56.5,121.5C 58.9236,133.772 62.9236,145.439 68.5,156.5C 61.23,146.034 56.8967,134.368 55.5,121.5 Z"/></g>
<g><path style="opacity:1" fill="#590e17" d="M 161.5,145.5 C 162.404,146.209 162.737,147.209 162.5,148.5C 161.5,148.5 160.5,148.5 159.5,148.5C 159.285,146.821 159.952,145.821 161.5,145.5 Z"/></g>
<g><path style="opacity:1" fill="#d51e28" d="M 192.5,131.5 C 189.252,140.333 184.252,148 177.5,154.5C 177.167,154.5 176.833,154.5 176.5,154.5C 174.445,153.441 173.111,151.775 172.5,149.5C 176.5,152.167 177.167,151.5 174.5,147.5C 176.086,148.413 177.586,148.413 179,147.5C 182.482,144.201 184.649,140.201 185.5,135.5C 189.005,135.306 189.338,134.306 186.5,132.5C 187.675,132.719 188.675,132.386 189.5,131.5C 189.376,130.893 189.043,130.56 188.5,130.5C 188.461,129.244 188.961,128.244 190,127.5C 190.2,129.32 191.034,130.653 192.5,131.5 Z"/></g>
<g><path style="opacity:1" fill="#e02939" d="M 161.5,145.5 C 159.952,145.821 159.285,146.821 159.5,148.5C 160.5,148.5 161.5,148.5 162.5,148.5C 158.521,152.759 153.521,154.759 147.5,154.5C 147.5,153.5 147.5,152.5 147.5,151.5C 148.117,151.611 148.617,151.944 149,152.5C 151.996,151.71 154.829,150.544 157.5,149C 158.38,147.644 158.714,146.144 158.5,144.5C 159.791,144.263 160.791,144.596 161.5,145.5 Z"/></g>
<g><path style="opacity:1" fill="#dc111b" d="M 200.5,101.5 C 201.387,106.92 202.387,112.42 203.5,118C 202.575,121.471 200.908,124.471 198.5,127C 199.409,128.789 199.576,130.623 199,132.5C 198.586,132.043 198.086,131.709 197.5,131.5C 194.664,136.345 192.664,141.511 191.5,147C 192.022,147.561 192.355,148.228 192.5,149C 189.914,151.197 187.581,153.697 185.5,156.5C 183.471,155.371 183.137,155.871 184.5,158C 182.561,158.908 181.561,160.408 181.5,162.5C 180.448,162.351 179.448,162.517 178.5,163C 175.826,166.012 172.493,167.678 168.5,168C 165.361,171.737 161.361,173.57 156.5,173.5C 158.054,172.105 157.721,171.439 155.5,171.5C 146.195,172.614 136.862,172.781 127.5,172C 132.614,171.891 137.614,171.224 142.5,170C 141.672,169.085 140.672,168.419 139.5,168C 140.056,167.617 140.389,167.117 140.5,166.5C 140.5,165.5 140.5,164.5 140.5,163.5C 142.903,163.552 145.236,163.219 147.5,162.5C 149.884,162.557 152.218,162.223 154.5,161.5C 156.325,162.651 158.325,163.318 160.5,163.5C 160.768,161.901 160.434,160.568 159.5,159.5C 159.672,158.508 159.338,157.842 158.5,157.5C 157.791,156.596 156.791,156.263 155.5,156.5C 155.5,157.5 155.5,158.5 155.5,159.5C 145.192,160.234 134.859,160.734 124.5,161C 125.759,161.923 127.092,162.757 128.5,163.5C 123.398,165.561 121.731,164.061 123.5,159C 121.655,157.872 119.655,157.372 117.5,157.5C 117.5,158.833 117.5,160.167 117.5,161.5C 114.53,160.451 111.53,159.284 108.5,158C 106.561,157.092 105.561,155.592 105.5,153.5C 104.789,151.158 103.456,150.825 101.5,152.5C 100.5,151.833 99.5,151.167 98.5,150.5C 98.9867,149.527 99.4867,148.527 100,147.5C 102.055,147.152 104.055,147.819 106,149.5C 106.561,148.978 107.228,148.645 108,148.5C 109.735,149.682 110.735,151.349 111,153.5C 113.324,152.225 113.824,150.558 112.5,148.5C 112.821,146.952 113.821,146.285 115.5,146.5C 114.766,147.708 114.433,149.041 114.5,150.5C 124.875,156.933 135.875,158.266 147.5,154.5C 153.521,154.759 158.521,152.759 162.5,148.5C 164.821,148.229 166.821,148.896 168.5,150.5C 169.417,149.873 170.417,149.539 171.5,149.5C 171.833,149.5 172.167,149.5 172.5,149.5C 173.111,151.775 174.445,153.441 176.5,154.5C 172.742,157.557 168.742,160.39 164.5,163C 169.843,161.486 174.51,158.652 178.5,154.5C 190.222,143.725 197.222,130.392 199.5,114.5C 200.485,110.366 200.818,106.032 200.5,101.5 Z"/></g>
<g><path style="opacity:1" fill="#6b0f14" d="M 147.5,151.5 C 147.5,152.5 147.5,153.5 147.5,154.5C 146.5,154.5 145.5,154.5 144.5,154.5C 144.5,153.5 144.5,152.5 144.5,151.5C 145.5,150.167 146.5,150.167 147.5,151.5 Z"/></g>
<g><path style="opacity:1" fill="#54090c" d="M 115.5,146.5 C 117.048,146.821 117.715,147.821 117.5,149.5C 116.609,150.11 115.609,150.443 114.5,150.5C 114.433,149.041 114.766,147.708 115.5,146.5 Z"/></g>
<g><path style="opacity:1" fill="#2f0804" d="M 174.5,147.5 C 177.167,151.5 176.5,152.167 172.5,149.5C 172.5,148.167 173.167,147.5 174.5,147.5 Z"/></g>
<g><path style="opacity:1" fill="#7a0910" d="M 174.5,147.5 C 173.167,147.5 172.5,148.167 172.5,149.5C 172.167,149.5 171.833,149.5 171.5,149.5C 171.5,148.5 171.5,147.5 171.5,146.5C 172.791,146.263 173.791,146.596 174.5,147.5 Z"/></g>
<g><path style="opacity:1" fill="#2b0803" d="M 105.5,153.5 C 104.518,154.141 103.518,154.807 102.5,155.5C 101.614,154.675 101.281,153.675 101.5,152.5C 103.456,150.825 104.789,151.158 105.5,153.5 Z"/></g>
<g><path style="opacity:1" fill="#f4adb7" d="M 89.5,146.5 C 90.5,147.833 91.5,149.167 92.5,150.5C 94.5,153.167 96.8333,155.5 99.5,157.5C 99.5,158.167 99.1667,158.5 98.5,158.5C 95.5,155.833 92.5,153.167 89.5,150.5C 89.4431,149.391 89.1098,148.391 88.5,147.5C 88.5,146.833 88.8333,146.5 89.5,146.5 Z"/></g>
<g><path style="opacity:1" fill="#dd202b" d="M 117.5,149.5 C 120.269,151.207 123.269,152.54 126.5,153.5C 127.506,153.062 127.506,152.396 126.5,151.5C 128.743,150.526 131.076,150.192 133.5,150.5C 133.5,151.5 133.5,152.5 133.5,153.5C 137.502,153.964 141.169,153.298 144.5,151.5C 144.5,152.5 144.5,153.5 144.5,154.5C 145.5,154.5 146.5,154.5 147.5,154.5C 135.875,158.266 124.875,156.933 114.5,150.5C 115.609,150.443 116.609,150.11 117.5,149.5 Z"/></g>
<g><path style="opacity:1" fill="#370303" d="M 129.5,151.5 C 131.465,151.948 131.798,152.948 130.5,154.5C 129.614,153.675 129.281,152.675 129.5,151.5 Z"/></g>
<g><path style="opacity:1" fill="#2d0704" d="M 158.5,157.5 C 159.338,157.842 159.672,158.508 159.5,159.5C 158.482,162.028 157.482,161.861 156.5,159C 156.836,157.97 157.503,157.47 158.5,157.5 Z"/></g>
<g><path style="opacity:1" fill="#e54d56" d="M 176.5,154.5 C 176.833,154.5 177.167,154.5 177.5,154.5C 177.833,154.5 178.167,154.5 178.5,154.5C 174.51,158.652 169.843,161.486 164.5,163C 168.742,160.39 172.742,157.557 176.5,154.5 Z"/></g>
<g><path style="opacity:1" fill="#db222b" d="M 89.5,150.5 C 92.5,153.167 95.5,155.833 98.5,158.5C 101.648,161.508 105.315,163.341 109.5,164C 106.014,162.004 102.681,159.837 99.5,157.5C 96.8333,155.5 94.5,153.167 92.5,150.5C 94.6075,150.722 96.2742,151.722 97.5,153.5C 97.9643,152.364 98.2976,151.364 98.5,150.5C 99.5,151.167 100.5,151.833 101.5,152.5C 101.281,153.675 101.614,154.675 102.5,155.5C 103.518,154.807 104.518,154.141 105.5,153.5C 105.561,155.592 106.561,157.092 108.5,158C 111.53,159.284 114.53,160.451 117.5,161.5C 117.5,160.167 117.5,158.833 117.5,157.5C 119.655,157.372 121.655,157.872 123.5,159C 121.731,164.061 123.398,165.561 128.5,163.5C 127.092,162.757 125.759,161.923 124.5,161C 134.859,160.734 145.192,160.234 155.5,159.5C 155.5,158.5 155.5,157.5 155.5,156.5C 156.791,156.263 157.791,156.596 158.5,157.5C 157.503,157.47 156.836,157.97 156.5,159C 157.482,161.861 158.482,162.028 159.5,159.5C 160.434,160.568 160.768,161.901 160.5,163.5C 158.325,163.318 156.325,162.651 154.5,161.5C 152.218,162.223 149.884,162.557 147.5,162.5C 145.393,161.532 143.059,161.198 140.5,161.5C 139.5,161.5 138.5,161.5 137.5,161.5C 137.5,163.167 137.5,164.833 137.5,166.5C 138.5,166.5 139.5,166.5 140.5,166.5C 140.389,167.117 140.056,167.617 139.5,168C 140.672,168.419 141.672,169.085 142.5,170C 137.614,171.224 132.614,171.891 127.5,172C 136.862,172.781 146.195,172.614 155.5,171.5C 157.721,171.439 158.054,172.105 156.5,173.5C 152.595,174.88 148.762,176.547 145,178.5C 134.708,176.981 124.541,175.314 114.5,173.5C 118.527,173.719 119.194,172.552 116.5,170C 114.167,169.333 111.833,169.333 109.5,170C 110.416,170.278 111.082,170.778 111.5,171.5C 102.638,168.242 94.9714,163.242 88.5,156.5C 88.5,155.833 88.1667,155.5 87.5,155.5C 87.3505,154.448 87.5172,153.448 88,152.5C 90.69,154.854 91.19,154.187 89.5,150.5 Z"/></g>
<g><path style="opacity:1" fill="#ea5669" d="M 140.5,161.5 C 143.059,161.198 145.393,161.532 147.5,162.5C 145.236,163.219 142.903,163.552 140.5,163.5C 140.5,162.833 140.5,162.167 140.5,161.5 Z"/></g>
<g><path style="opacity:1" fill="#e86c78" d="M 99.5,157.5 C 102.681,159.837 106.014,162.004 109.5,164C 105.315,163.341 101.648,161.508 98.5,158.5C 99.1667,158.5 99.5,158.167 99.5,157.5 Z"/></g>
<g><path style="opacity:1" fill="#300704" d="M 119.5,159.5 C 121.896,160.828 121.896,162.494 119.5,164.5C 118.334,162.833 118.334,161.166 119.5,159.5 Z"/></g>
<g><path style="opacity:1" fill="#490d11" d="M 140.5,161.5 C 140.5,162.167 140.5,162.833 140.5,163.5C 140.5,164.5 140.5,165.5 140.5,166.5C 139.5,166.5 138.5,166.5 137.5,166.5C 137.5,164.833 137.5,163.167 137.5,161.5C 138.5,161.5 139.5,161.5 140.5,161.5 Z"/></g>
<g><path style="opacity:1" fill="#e84855" d="M 114.5,173.5 C 113.5,172.833 112.5,172.167 111.5,171.5C 111.082,170.778 110.416,170.278 109.5,170C 111.833,169.333 114.167,169.333 116.5,170C 119.194,172.552 118.527,173.719 114.5,173.5 Z"/></g>
<g><path style="opacity:1" fill="#ee8795" d="M 119.5,168.5 C 119.917,167.876 120.584,167.543 121.5,167.5C 126.431,168.741 131.431,169.575 136.5,170C 130.59,171.008 124.923,170.508 119.5,168.5 Z"/></g>
<g><path style="opacity:1" fill="#9fc67c" d="M 68.5,156.5 C 69.9791,157.759 71.6458,158.759 73.5,159.5C 74.1667,159.833 74.8333,160.167 75.5,160.5C 86.8844,176.008 102.218,185.175 121.5,188C 128.826,188.5 136.159,188.666 143.5,188.5C 144.833,188.5 146.167,188.5 147.5,188.5C 150.833,188.5 154.167,188.5 157.5,188.5C 127.148,196.204 100.314,189.537 77,168.5C 73.9113,164.646 71.078,160.646 68.5,156.5 Z"/></g>
<g><path style="opacity:0.129" fill="#b7d4a2" d="M 195.5,166.5 C 192.789,170.212 189.456,173.212 185.5,175.5C 185.511,173.983 186.177,172.816 187.5,172C 190.065,169.92 192.732,168.087 195.5,166.5 Z"/></g>
<g><path style="opacity:1" fill="#efde99" d="M 196.5,54.5 C 213.35,73.5763 219.85,95.9096 216,121.5C 212.769,134.298 207.603,146.298 200.5,157.5C 192.873,165.964 184.206,173.131 174.5,179C 165.708,183.095 156.708,186.262 147.5,188.5C 146.167,188.5 144.833,188.5 143.5,188.5C 143.5,188.167 143.5,187.833 143.5,187.5C 145.888,186.651 148.221,185.651 150.5,184.5C 156.069,183.885 161.403,182.385 166.5,180C 185.014,171.986 198.347,158.819 206.5,140.5C 209.85,136.161 211.85,131.161 212.5,125.5C 214.045,119.581 214.711,113.414 214.5,107C 214.499,102.32 214.166,97.8205 213.5,93.5C 212.652,88.7742 211.485,84.1076 210,79.5C 205.993,71.4769 201.493,63.8102 196.5,56.5C 196.5,55.8333 196.5,55.1667 196.5,54.5 Z"/></g>
<g><path style="opacity:1" fill="#f2e9b7" d="M 75.5,158.5 C 76.8333,159.167 77.8333,160.167 78.5,161.5C 90.9584,175.895 106.625,184.229 125.5,186.5C 131.31,187.49 137.31,187.823 143.5,187.5C 143.5,187.833 143.5,188.167 143.5,188.5C 136.159,188.666 128.826,188.5 121.5,188C 102.218,185.175 86.8844,176.008 75.5,160.5C 75.5,159.833 75.5,159.167 75.5,158.5 Z"/></g>
<g><path style="opacity:0.243" fill="#aacc91" d="M 178.5,179.5 C 175.534,181.988 172.201,183.988 168.5,185.5C 171.02,182.346 174.353,180.346 178.5,179.5 Z"/></g>
<g><path style="opacity:1" fill="#87b854" d="M 200.5,157.5 C 199.962,159.117 199.629,160.784 199.5,162.5C 198.5,164.167 197.167,165.5 195.5,166.5C 192.732,168.087 190.065,169.92 187.5,172C 186.177,172.816 185.511,173.983 185.5,175.5C 183.302,177.098 180.969,178.431 178.5,179.5C 174.353,180.346 171.02,182.346 168.5,185.5C 167.833,185.5 167.167,185.5 166.5,185.5C 162.956,185.132 159.956,186.132 157.5,188.5C 154.167,188.5 150.833,188.5 147.5,188.5C 156.708,186.262 165.708,183.095 174.5,179C 184.206,173.131 192.873,165.964 200.5,157.5 Z"/></g>
<g><path style="opacity:1" fill="#f3b492" d="M 150.5,184.5 C 148.221,185.651 145.888,186.651 143.5,187.5C 137.31,187.823 131.31,187.49 125.5,186.5C 133.936,186.847 142.269,186.181 150.5,184.5 Z"/></g>
<g><path style="opacity:0.529" fill="#a5c887" d="M 166.5,185.5 C 163.916,187.472 160.916,188.472 157.5,188.5C 159.956,186.132 162.956,185.132 166.5,185.5 Z"/></g>
</svg>
